HIERARCHY
ROOT Bip001_Pelvis
{
  OFFSET 34.4345 95.6767 -26.8758
  CHANNELS 6 Xposition Yposition Zposition Zrotation Xrotation Yrotation
  JOINT Bip001_Spine
  {
    OFFSET 1.4188e-005 10.2191 -0.0116013
    CHANNELS 3 Zrotation Xrotation Yrotation
    JOINT Bip001_L_Thigh
    {
      OFFSET 11.0458 -10.2192 0.0116197
      CHANNELS 3 Zrotation Xrotation Yrotation
      JOINT Bip001_L_Calf
      {
        OFFSET -0.707118 -44.0221 0.360014
        CHANNELS 3 Zrotation Xrotation Yrotation
        JOINT Bip001_L_Foot
        {
          OFFSET -0.651902 -40.5938 -3.56146
          CHANNELS 3 Zrotation Xrotation Yrotation
          JOINT Bip001_L_Toe0
          {
            OFFSET 0.0530839 -10.2181 13.1504
            CHANNELS 3 Zrotation Xrotation Yrotation
            End Site
            {
              OFFSET -1.02532e-005 0 7.55606
            }
          }
        }
      }
    }
    JOINT Bip001_R_Thigh
    {
      OFFSET -11.0458 -10.2191 0.0115893
      CHANNELS 3 Zrotation Xrotation Yrotation
      JOINT Bip001_R_Calf
      {
        OFFSET 0.706994 -44.0221 0.35984
        CHANNELS 3 Zrotation Xrotation Yrotation
        JOINT Bip001_R_Foot
        {
          OFFSET 0.651786 -40.5938 -3.5613
          CHANNELS 3 Zrotation Xrotation Yrotation
          JOINT Bip001_R_Toe0
          {
            OFFSET -0.0531479 -10.2181 13.1504
            CHANNELS 3 Zrotation Xrotation Yrotation
            End Site
            {
              OFFSET -1.02894e-005 0 7.55606
            }
          }
        }
      }
    }
    JOINT Bip001_Spine1
    {
      OFFSET 1.87041e-005 14.5736 1.08638
      CHANNELS 3 Zrotation Xrotation Yrotation
      JOINT Bip001_Spine2
      {
        OFFSET 2.24614e-005 14.5058 -1.69078
        CHANNELS 3 Zrotation Xrotation Yrotation
        JOINT Bip001_Neck
        {
          OFFSET 2.20278e-005 15.3945 -0.489414
          CHANNELS 3 Zrotation Xrotation Yrotation
          JOINT Bip001_L_Clavicle
          {
            OFFSET 6.06036 -0.000579998 0.00836775
            CHANNELS 3 Zrotation Xrotation Yrotation
            JOINT Bip001_L_UpperArm
            {
              OFFSET 11.5509 -0.0600302 0.00193952
              CHANNELS 3 Zrotation Xrotation Yrotation
              JOINT Bip001_L_Forearm
              {
                OFFSET 25.9523 0.0806089 -2.15551
                CHANNELS 3 Zrotation Xrotation Yrotation
                JOINT Bip001_L_Hand
                {
                  OFFSET 32.2475 0.153767 1.63968
                  CHANNELS 3 Zrotation Xrotation Yrotation
                  JOINT Bip001_L_Finger0
                  {
                    OFFSET 6.04639 -2.20976 5.90322
                    CHANNELS 3 Zrotation Xrotation Yrotation
                    End Site
                    {
                      OFFSET 4.22375 -1.43895 0.606485
                    }
                  }
                  JOINT Bip001_L_Finger1
                  {
                    OFFSET 11.0826 -0.704819 -0.198153
                    CHANNELS 3 Zrotation Xrotation Yrotation
                    End Site
                    {
                      OFFSET 6.20027 -0.397518 -0.0787166
                    }
                  }
                }
              }
            }
          }
          JOINT Bip001_R_Clavicle
          {
            OFFSET -6.06037 -0.000563197 0.00835105
            CHANNELS 3 Zrotation Xrotation Yrotation
            JOINT Bip001_R_UpperArm
            {
              OFFSET -11.5509 -0.0599978 0.00190698
              CHANNELS 3 Zrotation Xrotation Yrotation
              JOINT Bip001_R_Forearm
              {
                OFFSET -25.9523 0.0806822 -2.15589
                CHANNELS 3 Zrotation Xrotation Yrotation
                JOINT Bip001_R_Hand
                {
                  OFFSET -32.2475 0.153859 1.63989
                  CHANNELS 3 Zrotation Xrotation Yrotation
                  JOINT Bip001_R_Finger0
                  {
                    OFFSET -6.04641 -2.20976 5.90317
                    CHANNELS 3 Zrotation Xrotation Yrotation
                    End Site
                    {
                      OFFSET -4.22376 -1.43895 0.60647
                    }
                  }
                  JOINT Bip001_R_Finger1
                  {
                    OFFSET -11.0826 -0.704794 -0.198182
                    CHANNELS 3 Zrotation Xrotation Yrotation
                    End Site
                    {
                      OFFSET -6.20028 -0.397504 -0.0787333
                    }
                  }
                }
              }
            }
          }
          JOINT Bip001_Head
          {
            OFFSET 1.09673e-005 11.2744 2.05948
            CHANNELS 3 Zrotation Xrotation Yrotation
            End Site
            {
              OFFSET 2.89576e-005 20.8808 -2.77728e-005
            }
          }
        }
      }
    }
  }
}
MOTION
Frames:	6
Frame Time:	0.04
33.3158 95.9366 -28.3077 1.22678 0.276935 2.37664 -0.453965 1.78305 0.246706 4.14447 -2.35739 6.31767 -0.49847 5.28757 -7.7427 3.09207 -2.80623 -0.0773076 1.05668 -4.51433 -0.490674 -4.06181 -3.5499 -0.802873 0.495231 11.432 -0.320293 -6.02998 -9.76798 0.643552 2.21426 -7.51433 2.25438 -0.9157 3.56392 0.507592 -0.91599 3.56392 0.507732 3.61047 -8.4378 -3.62509 -27.0399 8.4526 1.80461 -55.4031 38.9728 3.49739 15.1296 -1.57661 -23.1601 8.16909 1.18611 -3.73339 3.18055e-015 -6.36111e-015 -3.18055e-015 9.54166e-015 -9.54167e-015 -3.18055e-015 14.9043 16.9319 27.7905 81.8346 -75.9674 54.8038 -43.6356 3.62818 114.798 -42.4562 3.18872 0.327497 3.97569e-016 -1.98785e-016 1.75179e-015 3.97569e-016 -3.97569e-016 -2.42269e-016 -3.1915 -6.10059 -2.15427 
33.2322 95.942 -28.1971 1.15458 0.311457 2.46147 -0.438464 1.76502 0.256728 4.33802 -2.37822 6.2064 -0.590927 5.43189 -7.6287 2.60955 -3.20158 -0.0522693 0.896716 -4.22421 -0.385224 -3.93926 -3.37254 -0.910255 0.489747 11.2042 -0.308554 -6.04583 -9.73419 0.609283 2.21537 -7.51062 2.26276 -0.885478 3.52803 0.527333 -0.885477 3.52801 0.527334 3.55822 -8.42309 -3.68917 -27.0212 8.41802 1.85097 -55.6876 39.3897 3.75786 15.1275 -1.49774 -23.002 8.0738 1.18805 -3.89861 -3.18055e-015 0 3.18055e-015 -3.18055e-015 -3.18056e-015 -0 14.5375 17.1195 29.0193 83.6913 -74.458 58.034 -43.2834 4.04589 114.64 -43.8038 3.01206 0.0909813 7.95139e-016 7.95139e-016 -3.67752e-015 1.59028e-015 7.95139e-016 -3.67752e-015 -3.14568 -5.97137 -2.23055 
33.1532 95.9482 -28.091 1.06698 0.345525 2.50399 -0.413411 1.75991 0.268916 4.47793 -2.41681 6.34943 -0.580464 5.58596 -7.78786 2.30811 -3.48629 -0.0373311 0.746475 -3.98559 -0.262816 -3.80527 -3.24181 -0.911984 0.478049 11.0109 -0.200221 -6.11598 -9.65748 0.415962 2.21719 -7.50776 2.27667 -0.83567 3.51695 0.550929 -0.835667 3.51695 0.550923 3.49139 -8.46272 -3.73318 -27.0191 8.44314 1.89318 -55.8729 39.6496 3.95838 14.8992 -1.73178 -22.9611 7.94694 1.72646 -3.87183 -6.36111e-015 -3.18055e-015 -0 -3.18055e-015 -3.18056e-015 3.18055e-015 13.9837 17.2787 30.2732 81.8869 -71.9604 57.845 -43.3776 4.53505 113.411 -44.825 2.27822 0.105866 2.75869e-031 -3.18055e-015 4.96962e-015 7.95139e-016 0 4.77083e-015 -3.12077 -5.87573 -2.29412 
33.077 95.9421 -27.9918 0.961792 0.377278 2.59038 -0.385958 1.76151 0.280532 4.63804 -2.51273 6.59874 -0.594759 5.81055 -8.19248 2.32001 -3.60944 -0.0310013 0.679213 -3.99848 -0.18453 -3.64723 -3.13536 -0.871265 0.470264 10.8608 -0.142594 -6.1764 -9.60243 0.185706 2.21844 -7.51997 2.28208 -0.781138 3.52108 0.574256 -0.781138 3.52108 0.574254 3.56179 -8.37829 -3.82556 -27.0442 8.37783 1.73927 -56.0716 39.7082 4.1002 15.151 -0.898423 -22.7882 7.76747 1.30245 -3.93524 3.18055e-015 0 3.18055e-015 6.36111e-015 -3.18056e-015 3.18055e-015 13.2073 17.3259 31.7518 75.9056 -68.1908 54.4746 -43.478 5.0966 110.645 -45.4251 1.48176 0.455883 1.59028e-015 -4.77083e-015 3.97569e-015 7.95139e-016 0 4.37326e-015 -3.18816 -5.98758 -2.35637 
33.0012 95.9458 -27.8904 0.831494 0.349858 2.66303 -0.33588 1.80534 0.28167 4.89557 -2.5696 6.66843 -0.747712 6.03689 -8.19759 1.96248 -3.98274 -0.0214681 0.634547 -3.75191 -0.17666 -3.47481 -2.9449 -0.931236 0.419216 10.5699 -0.0630501 -6.22265 -9.49443 0.0721469 2.21959 -7.53401 2.28644 -0.68163 3.609 0.575337 -0.681362 3.60899 0.575175 3.50716 -8.54481 -3.84741 -27.0583 8.54084 1.76201 -56.1023 39.8189 4.04049 15.1302 -0.924175 -22.6699 7.71875 1.27563 -4.05621 -3.18055e-015 -9.54166e-015 1.59028e-015 -3.18055e-015 -9.54167e-015 -0 12.2108 17.4238 32.9592 68.8501 -62.3956 51.3351 -43.0482 6.11917 105.748 -43.1533 0.617651 0.84581 -1.04362e-015 0 -1.3418e-015 -1.14301e-015 -3.18056e-015 -1.86361e-015 -3.30652 -6.00007 -2.3783 
32.9379 95.9521 -27.8121 0.639024 0.306333 2.64916 -0.299518 1.84353 0.239715 5.15795 -2.63224 6.87122 -0.788461 6.30522 -8.27174 1.70425 -4.29964 -0.00938493 0.547289 -3.567 -0.113409 -3.2302 -2.79863 -0.852948 0.362978 10.3222 0.0110787 -6.24551 -9.34628 -0.0175018 2.21444 -7.49504 2.25876 -0.606824 3.68562 0.487476 -0.607113 3.68562 0.488421 3.77223 -8.17295 -3.71839 -26.9542 8.27984 1.34254 -56.4248 39.4132 4.28057 15.233 -0.702799 -22.7886 7.74727 1.07684 -4.05821 1.76556e-031 3.18055e-015 -3.18055e-015 0 0 -4.77083e-015 9.93996 16.4731 34.0164 62.7452 -53.9443 50.5308 -43.2998 7.17563 97.1057 -38.8229 2.29622 0.112185 7.95139e-016 3.18055e-015 7.95139e-016 1.59028e-015 3.18056e-015 -1.59028e-015 -3.5095 -6.59574 -2.16644 
